<svg viewBox="0 0 30 30" fill="none" xmlns="http://www.w3.org/2000/svg" aria-label="Deno Logo"><g clip-path="url(#a)"><path d="M15 0c8.2843 0 15 6.71572 15 15 0 8.2843-6.7157 15-15 15-8.28428 0-15-6.7157-15-15C0 6.71572 6.71572 0 15 0Z" fill="currentColor"/><path d="M14.6635 22.3394c-.3847-.1037-.7804.119-.893.4987l-.005.0177-.9961 3.6914-.0045.0178c-.0938.3848.1362.7764.5209.8801.3846.1039.7803-.1188.8929-.4986l.005-.0176.996-3.6914.0046-.0179c.0068-.0277.0119-.0556.0154-.0834l.0029-.0278-.0236-.1196-.0345-.1722-.0218-.1075c-.0467-.0901-.1116-.1695-.1907-.2332-.079-.0636-.1705-.1101-.2685-.1365Zm-6.9411-3.8015c-.01816.0362-.03357.0744-.04582.1143l-.00691.0241-.99609 3.6914-.00458.0179c-.09375.3848.13624.7763.5209.8801.38461.1038.78036-.1188.89297-.4986l.00492-.0177.90317-3.3471c-.47303-.2505-.8976-.5395-1.26856-.8644Zm-2.37533-4.245c-.38467-.1038-.78041.1188-.89297.4986l-.00498.0177-.99609 3.6914-.00457.0178c-.09375.3848.13623.7763.5209.8801.38461.1038.78035-.1188.89296-.4986l.00493-.0177.99609-3.6914.00457-.0178c.09375-.3848-.13617-.7763-.52084-.8801Zm22.33493-.8383c-.3847-.1038-.7805.1188-.893.4986l-.005.0177-.9961 3.6914-.0046.0178c-.0937.3848.1363.7763.5209.8801.3847.1038.7804-.1188.893-.4986l.0049-.0177.9961-3.6914.0046-.0178c.0937-.3848-.1362-.7763-.5208-.8801ZM3.17781 8.52527c-.8342 1.51913-1.36538 3.18593-1.56404 4.90763.09503.1083.22004.1861.35924.2234.38467.1039.78041-.1188.89297-.4986l.00498-.0176.99609-3.69145.00457-.01781c.09375-.38485-.13623-.77637-.5209-.88014-.05642-.01523-.11449-.02376-.17291-.02543ZM25.159 8.5507c-.3846-.10383-.7804.11883-.893.49863l-.0049.01764-.9961 3.69143-.0046.0178c-.0937.3848.1362.7764.5209.8801.3846.1039.7804-.1188.893-.4986l.0049-.0176.9961-3.69145.0046-.01781c.0937-.38485-.1363-.77637-.5209-.88014ZM7.51285 5.04065c-.38461-.10383-.78036.11883-.89297.49864l-.00493.01763-.99609 3.69141-.00457.01781c-.09375.38484.13623.77636.5209.88016.38461.1038.78035-.1189.89297-.49866l.00492-.01763.99609-3.69141.00457-.01781c.09375-.38484-.13623-.77637-.52089-.88014Zm12.79875.6978c-.3847-.10383-.7804.11882-.893.49863l-.005.01763-.6693 2.48028c.4336.21416.8474.46627 1.2366.7534l.0644.04804.7826-2.90004.0045-.01781c.0938-.38484-.1361-.77637-.5208-.88013Zm-6.5148-4.16203c-.4672.04129-.9321.10696-1.3925.19675l-.0977.01946-.9284 3.44156-.0046.01781c-.0937.38484.1363.77637.5209.88014.3847.10382.7804-.11883.893-.49864l.0049-.01763.9961-3.69141.0046-.01781c.0265-.10834.0278-.22132.0037-.33023Zm9.1658 2.54988-.1957.72539-.0046.01775c-.0937.38485.1363.77637.5209.88014.3846.10383.7804-.11883.893-.49863l.0049-.01764.0214-.07869c-.3663-.34257-.7514-.66453-1.1534-.9644l-.0865-.06392Zm-5.7954-2.42953-.3533 1.30916-.0045.01781c-.0938.38484.1362.77637.5209.88014.3846.10382.7803-.11883.893-.49864l.0049-.01763.3718-1.37795c-.4376-.12099-.881-.21965-1.3286-.29561l-.1042-.01728ZM9.69085 24.6253c.11256-.3798.50835-.6024.89295-.4987.3847.1037.6146.4953.5209.8802l-.0046.0178-.7129 2.6418-.0996-.0367c-.42924-.1603-.84995-.3424-1.2605-.5458l.65877-2.441.00498-.0176Z" fill="#fff"/><path d="M14.4141 8.49082c-4.3619 0-7.75492 2.74598-7.75492 6.16088 0 3.2252 3.12205 5.2845 7.96192 5.1814.4116-.0088.5306.2677.6645.6403.134.3726.494 2.3363.7809 3.8383.2568 1.3443.5177 2.6935.7169 4.0479 3.1605-.4178 6.0829-1.9789 8.2242-4.3335l-2.2839-8.5173c-.5693-2.057-1.2347-3.9524-2.9954-5.3294-1.4165-1.10774-3.2161-1.68858-5.3142-1.68858Z" fill="#fff"/><path d="M15.3516 10.957c.5178 0 .9375.4197.9375.9375s-.4197.9375-.9375.9375-.9375-.4197-.9375-.9375.4197-.9375.9375-.9375Z" fill="currentColor"/></g><defs><clipPath id="a"><path fill="#fff" d="M0 0h30v30H0z"/></clipPath></defs></svg>